# xmcd CD database file
#
# Track frame offsets:
#	150
#	27350
#	55787
#	77842
#	111725
#	138195
#	159445
#	187035
#
# Disc length: 2922 seconds
#
# Revision: 0
# Processed by: cddbd v1.5.2PL0 Copyright (c) Steve Scherf et al.
# Submitted via: CDex 1.51
#
DISCID=690b6808
DTITLE=Kitaro - The Light Of The Spirit
DYEAR=1987
DGENRE=New Age
TTITLE0=Mysterious Encounter
TTITLE1=Sundance
TTITLE2=The Field
TTITLE3=The Light Of The Spirit
TTITLE4=In The Beginning
TTITLE5=Moondance
TTITLE6=Howling Thunder
TTITLE7=Journey To A Fantasy
EXTD=YEAR: 1987
EXTT0=
EXTT1=
EXTT2=
EXTT3=
EXTT4=
EXTT5=
EXTT6=
EXTT7=
PLAYORDER=
